<mxfile host="app.diagrams.net" modified="2023-12-12T09:41:01.071Z" agent="Mozilla/5.0 (Macintosh; Intel Mac OS X 10_15_7) AppleWebKit/537.36 (KHTML, like Gecko) Chrome/120.0.0.0 Safari/537.36" etag="3bUMWp63sSi1cnhBbBit" version="22.1.7" type="device">
  <diagram name="Page-1" id="J7lDw7_B6mRfGY2jVxNy">
    <mxGraphModel dx="5435" dy="2334" grid="1" gridSize="10" guides="1" tooltips="1" connect="1" arrows="1" fold="1" page="1" pageScale="1" pageWidth="827" pageHeight="1169" math="0" shadow="0">
      <root>
        <mxCell id="0" />
        <mxCell id="1" parent="0" />
        <mxCell id="3CJS3uB6BW7C9CZVDvfE-26" style="edgeStyle=orthogonalEdgeStyle;rounded=0;orthogonalLoop=1;jettySize=auto;html=1;entryX=0.5;entryY=1;entryDx=0;entryDy=0;endArrow=none;endFill=0;" parent="1" source="WkMunZ7JaqHcUI_JXrcm-2" target="3CJS3uB6BW7C9CZVDvfE-24" edge="1">
          <mxGeometry relative="1" as="geometry">
            <Array as="points">
              <mxPoint x="-1360" y="40" />
              <mxPoint x="-755" y="40" />
            </Array>
          </mxGeometry>
        </mxCell>
        <mxCell id="WkMunZ7JaqHcUI_JXrcm-2" value="&lt;p style=&quot;margin:0px;margin-top:4px;text-align:center;&quot;&gt;&amp;lt;&amp;lt;hardware&amp;gt;&amp;gt;&lt;br&gt;&lt;/p&gt;&lt;p style=&quot;margin:0px;margin-top:4px;text-align:center;&quot;&gt;&lt;b&gt;Kamera&lt;/b&gt;&lt;/p&gt;&lt;p&gt;&lt;/p&gt;&lt;p style=&quot;margin:0px;margin-left:8px;text-align:left;&quot;&gt;&lt;br&gt;&lt;/p&gt;" style="shape=rect;overflow=fill;html=1;whiteSpace=wrap;align=center;" parent="1" vertex="1">
          <mxGeometry x="-1460" y="90" width="200" height="100" as="geometry" />
        </mxCell>
        <mxCell id="3CJS3uB6BW7C9CZVDvfE-25" style="edgeStyle=orthogonalEdgeStyle;rounded=0;orthogonalLoop=1;jettySize=auto;html=1;exitX=0.5;exitY=0;exitDx=0;exitDy=0;entryX=0.5;entryY=1;entryDx=0;entryDy=0;endArrow=none;endFill=0;" parent="1" source="WkMunZ7JaqHcUI_JXrcm-3" target="3CJS3uB6BW7C9CZVDvfE-24" edge="1">
          <mxGeometry relative="1" as="geometry" />
        </mxCell>
        <mxCell id="WkMunZ7JaqHcUI_JXrcm-3" value="&lt;p style=&quot;margin:0px;margin-top:4px;text-align:center;&quot;&gt;&amp;lt;&amp;lt;hardware&amp;gt;&amp;gt;&lt;br&gt;&lt;/p&gt;&lt;p style=&quot;margin:0px;margin-top:4px;text-align:center;&quot;&gt;&lt;b&gt;Ultraschall&lt;/b&gt;&lt;/p&gt;" style="shape=rect;overflow=fill;html=1;whiteSpace=wrap;align=center;" parent="1" vertex="1">
          <mxGeometry x="-855" y="100" width="200" height="100" as="geometry" />
        </mxCell>
        <mxCell id="3CJS3uB6BW7C9CZVDvfE-17" style="edgeStyle=orthogonalEdgeStyle;rounded=0;orthogonalLoop=1;jettySize=auto;html=1;entryX=0.5;entryY=1;entryDx=0;entryDy=0;endArrow=none;endFill=0;exitX=0.5;exitY=0;exitDx=0;exitDy=0;" parent="1" source="WkMunZ7JaqHcUI_JXrcm-5" target="WkMunZ7JaqHcUI_JXrcm-2" edge="1">
          <mxGeometry relative="1" as="geometry">
            <Array as="points">
              <mxPoint x="-1110" y="250" />
              <mxPoint x="-1360" y="250" />
            </Array>
          </mxGeometry>
        </mxCell>
        <mxCell id="WkMunZ7JaqHcUI_JXrcm-5" value="&lt;p style=&quot;margin:0px;margin-top:4px;text-align:center;&quot;&gt;&amp;lt;&amp;lt;system&amp;gt;&amp;gt;&lt;br&gt;&lt;/p&gt;&lt;p style=&quot;margin:0px;margin-top:4px;text-align:center;&quot;&gt;&lt;b&gt;Verkehrszeichenerkenner&lt;/b&gt;&lt;/p&gt;" style="shape=rect;overflow=fill;html=1;whiteSpace=wrap;align=center;" parent="1" vertex="1">
          <mxGeometry x="-1210" y="300" width="200" height="100" as="geometry" />
        </mxCell>
        <mxCell id="3CJS3uB6BW7C9CZVDvfE-23" style="edgeStyle=orthogonalEdgeStyle;rounded=0;orthogonalLoop=1;jettySize=auto;html=1;entryX=0.5;entryY=1;entryDx=0;entryDy=0;endArrow=none;endFill=0;" parent="1" source="WkMunZ7JaqHcUI_JXrcm-7" target="WkMunZ7JaqHcUI_JXrcm-2" edge="1">
          <mxGeometry relative="1" as="geometry">
            <Array as="points">
              <mxPoint x="-1610" y="250" />
              <mxPoint x="-1360" y="250" />
            </Array>
          </mxGeometry>
        </mxCell>
        <mxCell id="WkMunZ7JaqHcUI_JXrcm-7" value="&lt;p style=&quot;margin:0px;margin-top:4px;text-align:center;&quot;&gt;&amp;lt;&amp;lt;system&amp;gt;&amp;gt;&lt;br&gt;&lt;/p&gt;&lt;p style=&quot;margin:0px;margin-top:4px;text-align:center;&quot;&gt;&lt;b&gt;Spurhalteassistent&lt;/b&gt;&lt;/p&gt;" style="shape=rect;overflow=fill;html=1;whiteSpace=wrap;align=center;" parent="1" vertex="1">
          <mxGeometry x="-1710" y="300" width="200" height="100" as="geometry" />
        </mxCell>
        <mxCell id="3CJS3uB6BW7C9CZVDvfE-39" style="edgeStyle=orthogonalEdgeStyle;rounded=0;orthogonalLoop=1;jettySize=auto;html=1;exitX=0.5;exitY=1;exitDx=0;exitDy=0;entryX=0;entryY=0.5;entryDx=0;entryDy=0;endArrow=none;endFill=0;" parent="1" source="WkMunZ7JaqHcUI_JXrcm-10" target="3CJS3uB6BW7C9CZVDvfE-24" edge="1">
          <mxGeometry relative="1" as="geometry" />
        </mxCell>
        <mxCell id="WkMunZ7JaqHcUI_JXrcm-10" value="&lt;p style=&quot;margin:0px;margin-top:4px;text-align:center;&quot;&gt;&amp;lt;&amp;lt;requirement&amp;gt;&amp;gt;&lt;br&gt;&lt;b&gt;Hindernisse identifizieren&lt;/b&gt;&lt;/p&gt;&lt;hr&gt;&lt;p&gt;&lt;/p&gt;&lt;p style=&quot;margin:0px;margin-left:8px;text-align:left;&quot;&gt;text=Die Sensorfusion-Komponente identifiziert Hindernisse und unterscheidet sie von externen Objekten.&lt;/p&gt;&lt;p style=&quot;margin:0px;margin-left:8px;text-align:left;&quot;&gt;Id=1&lt;/p&gt;" style="shape=rect;overflow=fill;html=1;whiteSpace=wrap;align=center;" parent="1" vertex="1">
          <mxGeometry x="-1750" y="-289" width="200" height="160" as="geometry" />
        </mxCell>
        <mxCell id="3CJS3uB6BW7C9CZVDvfE-40" style="edgeStyle=orthogonalEdgeStyle;rounded=0;orthogonalLoop=1;jettySize=auto;html=1;exitX=0.5;exitY=1;exitDx=0;exitDy=0;entryX=0;entryY=0.5;entryDx=0;entryDy=0;endArrow=none;endFill=0;" parent="1" source="WkMunZ7JaqHcUI_JXrcm-11" target="3CJS3uB6BW7C9CZVDvfE-24" edge="1">
          <mxGeometry relative="1" as="geometry" />
        </mxCell>
        <mxCell id="WkMunZ7JaqHcUI_JXrcm-11" value="&lt;p style=&quot;margin:0px;margin-top:4px;text-align:center;&quot;&gt;&amp;lt;&amp;lt;requirement&amp;gt;&amp;gt;&lt;br&gt;&lt;b&gt;Kollisionsbereiche identifizieren&lt;/b&gt;&lt;/p&gt;&lt;hr&gt;&lt;p&gt;&lt;/p&gt;&lt;p style=&quot;margin:0px;margin-left:8px;text-align:left;&quot;&gt;text=Die Sensorfusion-Komponente identifiziert mögliche Kollisionsbereiche mit erkannten Hindernissen.&lt;br&gt;Id=2&lt;/p&gt;" style="shape=rect;overflow=fill;html=1;whiteSpace=wrap;align=center;" parent="1" vertex="1">
          <mxGeometry x="-1530" y="-289" width="200" height="160" as="geometry" />
        </mxCell>
        <mxCell id="3CJS3uB6BW7C9CZVDvfE-2" style="edgeStyle=orthogonalEdgeStyle;rounded=0;orthogonalLoop=1;jettySize=auto;html=1;entryX=0.5;entryY=1;entryDx=0;entryDy=0;endArrow=none;endFill=0;" parent="1" source="3CJS3uB6BW7C9CZVDvfE-1" target="WkMunZ7JaqHcUI_JXrcm-2" edge="1">
          <mxGeometry relative="1" as="geometry">
            <Array as="points">
              <mxPoint x="-1280" y="330" />
              <mxPoint x="-1360" y="330" />
            </Array>
          </mxGeometry>
        </mxCell>
        <mxCell id="3CJS3uB6BW7C9CZVDvfE-1" value="&lt;p style=&quot;margin:0px;margin-top:4px;text-align:center;&quot;&gt;&amp;lt;&amp;lt;system&amp;gt;&amp;gt;&lt;br&gt;&lt;/p&gt;&lt;p style=&quot;margin:0px;margin-top:4px;text-align:center;&quot;&gt;&lt;b&gt;Umgebungsansicht&lt;/b&gt;&lt;/p&gt;" style="shape=rect;overflow=fill;html=1;whiteSpace=wrap;align=center;" parent="1" vertex="1">
          <mxGeometry x="-1460" y="300" width="200" height="100" as="geometry" />
        </mxCell>
        <mxCell id="3CJS3uB6BW7C9CZVDvfE-5" style="edgeStyle=orthogonalEdgeStyle;rounded=0;orthogonalLoop=1;jettySize=auto;html=1;endArrow=none;endFill=0;" parent="1" source="3CJS3uB6BW7C9CZVDvfE-3" target="WkMunZ7JaqHcUI_JXrcm-2" edge="1">
          <mxGeometry relative="1" as="geometry">
            <Array as="points">
              <mxPoint x="-1500" y="140" />
              <mxPoint x="-1500" y="140" />
            </Array>
          </mxGeometry>
        </mxCell>
        <mxCell id="3CJS3uB6BW7C9CZVDvfE-3" value="&lt;p style=&quot;margin:0px;margin-top:4px;text-align:center;&quot;&gt;&amp;lt;&amp;lt;requirement&amp;gt;&amp;gt;&lt;br&gt;&lt;b&gt;Qualität&lt;/b&gt;&lt;/p&gt;&lt;hr&gt;&lt;p&gt;&lt;/p&gt;&lt;p style=&quot;margin:0px;margin-left:8px;text-align:left;&quot;&gt;text=&quot;Die Kamera muss Bilder in ausreichender Auflösung und Framerate liefern.&quot;&lt;br&gt;Id=6&lt;/p&gt;" style="shape=rect;overflow=fill;html=1;whiteSpace=wrap;align=center;" parent="1" vertex="1">
          <mxGeometry x="-1720" y="70" width="200" height="110" as="geometry" />
        </mxCell>
        <mxCell id="3CJS3uB6BW7C9CZVDvfE-7" style="edgeStyle=orthogonalEdgeStyle;rounded=0;orthogonalLoop=1;jettySize=auto;html=1;endArrow=none;endFill=0;" parent="1" source="3CJS3uB6BW7C9CZVDvfE-6" target="3CJS3uB6BW7C9CZVDvfE-1" edge="1">
          <mxGeometry relative="1" as="geometry" />
        </mxCell>
        <mxCell id="3CJS3uB6BW7C9CZVDvfE-6" value="&lt;p style=&quot;margin:0px;margin-top:4px;text-align:center;&quot;&gt;&amp;lt;&amp;lt;requirement&amp;gt;&amp;gt;&lt;br&gt;&lt;b&gt;Abdeckung&lt;/b&gt;&lt;/p&gt;&lt;hr&gt;&lt;p&gt;&lt;/p&gt;&lt;p style=&quot;margin:0px;margin-left:8px;text-align:left;&quot;&gt;text=&quot;Die Umgebungsansicht darf keine toten Winkel aufweisen.&quot;&lt;br&gt;Id=8&lt;/p&gt;" style="shape=rect;overflow=fill;html=1;whiteSpace=wrap;align=center;" parent="1" vertex="1">
          <mxGeometry x="-1460" y="430" width="200" height="100" as="geometry" />
        </mxCell>
        <mxCell id="3CJS3uB6BW7C9CZVDvfE-12" style="edgeStyle=orthogonalEdgeStyle;rounded=0;orthogonalLoop=1;jettySize=auto;html=1;endArrow=none;endFill=0;exitX=0.5;exitY=0;exitDx=0;exitDy=0;" parent="1" source="3CJS3uB6BW7C9CZVDvfE-8" target="WkMunZ7JaqHcUI_JXrcm-3" edge="1">
          <mxGeometry relative="1" as="geometry">
            <Array as="points">
              <mxPoint x="-815" y="225" />
              <mxPoint x="-755" y="225" />
            </Array>
          </mxGeometry>
        </mxCell>
        <mxCell id="3CJS3uB6BW7C9CZVDvfE-8" value="&lt;p style=&quot;margin:0px;margin-top:4px;text-align:center;&quot;&gt;&amp;lt;&amp;lt;requirement&amp;gt;&amp;gt;&lt;br&gt;&lt;b&gt;Reichweite&lt;/b&gt;&lt;/p&gt;&lt;hr&gt;&lt;p&gt;&lt;/p&gt;&lt;p style=&quot;margin:0px;margin-left:8px;text-align:left;&quot;&gt;text=&quot;Der Ultraschallsensor soll eine größt mögliche Reichweite haben.&quot;&lt;br&gt;Id=10&lt;/p&gt;" style="shape=rect;overflow=fill;html=1;whiteSpace=wrap;align=center;" parent="1" vertex="1">
          <mxGeometry x="-960" y="290" width="200" height="120" as="geometry" />
        </mxCell>
        <mxCell id="3CJS3uB6BW7C9CZVDvfE-11" style="edgeStyle=orthogonalEdgeStyle;rounded=0;orthogonalLoop=1;jettySize=auto;html=1;entryX=0.5;entryY=1;entryDx=0;entryDy=0;endArrow=none;endFill=0;" parent="1" target="WkMunZ7JaqHcUI_JXrcm-3" edge="1">
          <mxGeometry relative="1" as="geometry">
            <mxPoint x="-650" y="285" as="sourcePoint" />
            <mxPoint x="-755" y="195" as="targetPoint" />
            <Array as="points">
              <mxPoint x="-650" y="225" />
              <mxPoint x="-755" y="225" />
            </Array>
          </mxGeometry>
        </mxCell>
        <mxCell id="3CJS3uB6BW7C9CZVDvfE-9" value="&lt;p style=&quot;margin:0px;margin-top:4px;text-align:center;&quot;&gt;&amp;lt;&amp;lt;requirement&amp;gt;&amp;gt;&lt;br&gt;&lt;b&gt;Erkennungswinkel&lt;/b&gt;&lt;/p&gt;&lt;hr&gt;&lt;p&gt;&lt;/p&gt;&lt;p style=&quot;margin:0px;margin-left:8px;text-align:left;&quot;&gt;text=&quot;Der Erkennungswinkel des Ultraschallsensors sollte die komplette Front/Heck des Fahrzeugs abdecken können.&quot;&lt;br&gt;Id=11&lt;/p&gt;" style="shape=rect;overflow=fill;html=1;whiteSpace=wrap;align=center;" parent="1" vertex="1">
          <mxGeometry x="-750" y="290" width="200" height="130" as="geometry" />
        </mxCell>
        <mxCell id="3IyTDMlbP66jioT_kEqA-1" style="edgeStyle=orthogonalEdgeStyle;rounded=0;orthogonalLoop=1;jettySize=auto;html=1;exitX=0.5;exitY=0;exitDx=0;exitDy=0;entryX=0.5;entryY=1;entryDx=0;entryDy=0;endArrow=none;endFill=0;" parent="1" source="3CJS3uB6BW7C9CZVDvfE-13" target="WkMunZ7JaqHcUI_JXrcm-3" edge="1">
          <mxGeometry relative="1" as="geometry" />
        </mxCell>
        <mxCell id="3CJS3uB6BW7C9CZVDvfE-13" value="&lt;p&gt;&amp;lt;&amp;lt;system&amp;gt;&amp;gt;&lt;br&gt;&lt;b&gt;Notbremsassistent&lt;/b&gt;&lt;/p&gt;" style="shape=rect;html=1;overflow=fill;whiteSpace=wrap;align=center;" parent="1" vertex="1">
          <mxGeometry x="-505" y="250" width="160" height="80" as="geometry" />
        </mxCell>
        <mxCell id="3CJS3uB6BW7C9CZVDvfE-16" style="edgeStyle=orthogonalEdgeStyle;rounded=0;orthogonalLoop=1;jettySize=auto;html=1;entryX=0.5;entryY=1;entryDx=0;entryDy=0;endArrow=none;endFill=0;" parent="1" source="3CJS3uB6BW7C9CZVDvfE-15" target="3CJS3uB6BW7C9CZVDvfE-13" edge="1">
          <mxGeometry relative="1" as="geometry" />
        </mxCell>
        <mxCell id="3CJS3uB6BW7C9CZVDvfE-15" value="&lt;p style=&quot;margin:0px;margin-top:4px;text-align:center;&quot;&gt;&amp;lt;&amp;lt;requirement&amp;gt;&amp;gt;&lt;br&gt;&lt;b&gt;Notbremsung&lt;/b&gt;&lt;/p&gt;&lt;hr&gt;&lt;p&gt;&lt;/p&gt;&lt;p style=&quot;margin:0px;margin-left:8px;text-align:left;&quot;&gt;text=&quot;Sämtliche Systeme müssen übergangen werden und es muss direkt eine Notbremsung eingeleitet werden.&quot;&lt;br&gt;Id=12&lt;/p&gt;" style="shape=rect;overflow=fill;html=1;whiteSpace=wrap;align=center;" parent="1" vertex="1">
          <mxGeometry x="-525" y="350" width="200" height="130" as="geometry" />
        </mxCell>
        <mxCell id="3CJS3uB6BW7C9CZVDvfE-20" style="edgeStyle=orthogonalEdgeStyle;rounded=0;orthogonalLoop=1;jettySize=auto;html=1;endArrow=none;endFill=0;" parent="1" source="3CJS3uB6BW7C9CZVDvfE-18" target="WkMunZ7JaqHcUI_JXrcm-5" edge="1">
          <mxGeometry relative="1" as="geometry" />
        </mxCell>
        <mxCell id="3CJS3uB6BW7C9CZVDvfE-18" value="&lt;p style=&quot;margin:0px;margin-top:4px;text-align:center;&quot;&gt;&amp;lt;&amp;lt;requirement&amp;gt;&amp;gt;&lt;br&gt;&lt;b&gt;Zuverlässigkeit&lt;/b&gt;&lt;/p&gt;&lt;hr&gt;&lt;p&gt;&lt;/p&gt;&lt;p style=&quot;margin:0px;margin-left:8px;text-align:left;&quot;&gt;text=&quot;Die Verkehrszeichen müssen zuverlässig erkannt werden.&quot;&lt;br&gt;Id=9&lt;/p&gt;" style="shape=rect;overflow=fill;html=1;whiteSpace=wrap;align=center;" parent="1" vertex="1">
          <mxGeometry x="-1210" y="430" width="200" height="100" as="geometry" />
        </mxCell>
        <mxCell id="3CJS3uB6BW7C9CZVDvfE-22" style="edgeStyle=orthogonalEdgeStyle;rounded=0;orthogonalLoop=1;jettySize=auto;html=1;entryX=0.5;entryY=1;entryDx=0;entryDy=0;endArrow=none;endFill=0;" parent="1" source="3CJS3uB6BW7C9CZVDvfE-21" target="WkMunZ7JaqHcUI_JXrcm-7" edge="1">
          <mxGeometry relative="1" as="geometry" />
        </mxCell>
        <mxCell id="3CJS3uB6BW7C9CZVDvfE-21" value="&lt;p style=&quot;margin:0px;margin-top:4px;text-align:center;&quot;&gt;&amp;lt;&amp;lt;requirement&amp;gt;&amp;gt;&lt;br&gt;&lt;b&gt;Leitstreifenerkennung&lt;/b&gt;&lt;/p&gt;&lt;hr&gt;&lt;p&gt;&lt;/p&gt;&lt;p style=&quot;margin:0px;margin-left:8px;text-align:left;&quot;&gt;text=&quot;System muss die Leitstreifen im Kamerafeed zuverlässig erkennen.&quot;&lt;br&gt;Id=7&lt;/p&gt;" style="shape=rect;overflow=fill;html=1;whiteSpace=wrap;align=center;" parent="1" vertex="1">
          <mxGeometry x="-1710" y="430" width="200" height="110" as="geometry" />
        </mxCell>
        <mxCell id="3CJS3uB6BW7C9CZVDvfE-24" value="&lt;p&gt;&amp;lt;&amp;lt;system&amp;gt;&amp;gt;&lt;br&gt;&lt;b&gt;Sensorfusion&lt;/b&gt;&lt;/p&gt;" style="shape=rect;html=1;overflow=fill;whiteSpace=wrap;align=center;" parent="1" vertex="1">
          <mxGeometry x="-835" y="-69" width="160" height="80" as="geometry" />
        </mxCell>
        <mxCell id="3CJS3uB6BW7C9CZVDvfE-33" style="edgeStyle=orthogonalEdgeStyle;rounded=0;orthogonalLoop=1;jettySize=auto;html=1;exitX=0.5;exitY=1;exitDx=0;exitDy=0;entryX=0.5;entryY=0;entryDx=0;entryDy=0;endArrow=none;endFill=0;" parent="1" source="3CJS3uB6BW7C9CZVDvfE-27" target="3CJS3uB6BW7C9CZVDvfE-24" edge="1">
          <mxGeometry relative="1" as="geometry" />
        </mxCell>
        <mxCell id="3CJS3uB6BW7C9CZVDvfE-27" value="&lt;p style=&quot;margin:0px;margin-top:4px;text-align:center;&quot;&gt;&amp;lt;&amp;lt;requirement&amp;gt;&amp;gt;&lt;br&gt;&lt;b&gt;Datenerfassung&lt;/b&gt;&lt;/p&gt;&lt;hr&gt;&lt;p&gt;&lt;/p&gt;&lt;p style=&quot;margin:0px;margin-left:8px;text-align:left;&quot;&gt;text=&quot;Die Daten von verschiedenen Sensoren sollen erfasst und gespeichert werden.&quot;&lt;br&gt;Id=3&lt;/p&gt;" style="shape=rect;overflow=fill;html=1;whiteSpace=wrap;align=center;" parent="1" vertex="1">
          <mxGeometry x="-1305" y="-289" width="200" height="140" as="geometry" />
        </mxCell>
        <mxCell id="3CJS3uB6BW7C9CZVDvfE-29" style="edgeStyle=orthogonalEdgeStyle;rounded=0;orthogonalLoop=1;jettySize=auto;html=1;entryX=1;entryY=0.5;entryDx=0;entryDy=0;dashed=1;" parent="1" source="3CJS3uB6BW7C9CZVDvfE-28" target="3CJS3uB6BW7C9CZVDvfE-27" edge="1">
          <mxGeometry relative="1" as="geometry" />
        </mxCell>
        <mxCell id="3CJS3uB6BW7C9CZVDvfE-30" value="&amp;lt;&amp;lt;requires&amp;gt;&amp;gt;" style="edgeLabel;html=1;align=center;verticalAlign=middle;resizable=0;points=[];" parent="3CJS3uB6BW7C9CZVDvfE-29" vertex="1" connectable="0">
          <mxGeometry x="-0.3231" y="-6" relative="1" as="geometry">
            <mxPoint x="-16" y="-4" as="offset" />
          </mxGeometry>
        </mxCell>
        <mxCell id="3CJS3uB6BW7C9CZVDvfE-31" style="edgeStyle=orthogonalEdgeStyle;rounded=0;orthogonalLoop=1;jettySize=auto;html=1;exitX=0.5;exitY=1;exitDx=0;exitDy=0;entryX=0.5;entryY=0;entryDx=0;entryDy=0;endArrow=none;endFill=0;" parent="1" source="3CJS3uB6BW7C9CZVDvfE-28" target="3CJS3uB6BW7C9CZVDvfE-24" edge="1">
          <mxGeometry relative="1" as="geometry" />
        </mxCell>
        <mxCell id="3CJS3uB6BW7C9CZVDvfE-28" value="&lt;p style=&quot;margin:0px;margin-top:4px;text-align:center;&quot;&gt;&amp;lt;&amp;lt;requirement&amp;gt;&amp;gt;&lt;br&gt;&lt;b&gt;Datenerfusion&lt;/b&gt;&lt;/p&gt;&lt;hr&gt;&lt;p&gt;&lt;/p&gt;&lt;p style=&quot;margin:0px;margin-left:8px;text-align:left;&quot;&gt;text=&quot;Die erfassten Daten sollen kobiniert und interpretiert werden.&quot;&lt;br&gt;Id=4&lt;/p&gt;" style="shape=rect;overflow=fill;html=1;whiteSpace=wrap;align=center;" parent="1" vertex="1">
          <mxGeometry x="-975" y="-289" width="200" height="140" as="geometry" />
        </mxCell>
        <mxCell id="3CJS3uB6BW7C9CZVDvfE-37" style="edgeStyle=orthogonalEdgeStyle;rounded=0;orthogonalLoop=1;jettySize=auto;html=1;exitX=0.5;exitY=1;exitDx=0;exitDy=0;endArrow=none;endFill=0;" parent="1" source="3CJS3uB6BW7C9CZVDvfE-34" edge="1">
          <mxGeometry relative="1" as="geometry">
            <mxPoint x="-755" y="-69" as="targetPoint" />
          </mxGeometry>
        </mxCell>
        <mxCell id="3CJS3uB6BW7C9CZVDvfE-34" value="&lt;p style=&quot;margin:0px;margin-top:4px;text-align:center;&quot;&gt;&amp;lt;&amp;lt;requirement&amp;gt;&amp;gt;&lt;br&gt;&lt;b&gt;Datentransformation&lt;/b&gt;&lt;/p&gt;&lt;hr&gt;&lt;p&gt;&lt;/p&gt;&lt;p style=&quot;margin:0px;margin-left:8px;text-align:left;&quot;&gt;text=&quot;Die erfassten Daten sollen in ein universelles Format transformiert werden.&quot;&lt;br&gt;Id=5&lt;/p&gt;" style="shape=rect;overflow=fill;html=1;whiteSpace=wrap;align=center;" parent="1" vertex="1">
          <mxGeometry x="-675" y="-289" width="200" height="140" as="geometry" />
        </mxCell>
        <mxCell id="3CJS3uB6BW7C9CZVDvfE-35" style="edgeStyle=orthogonalEdgeStyle;rounded=0;orthogonalLoop=1;jettySize=auto;html=1;entryX=1;entryY=0.5;entryDx=0;entryDy=0;dashed=1;exitX=0;exitY=0.5;exitDx=0;exitDy=0;" parent="1" source="3CJS3uB6BW7C9CZVDvfE-34" target="3CJS3uB6BW7C9CZVDvfE-28" edge="1">
          <mxGeometry relative="1" as="geometry">
            <mxPoint x="-660" y="-219" as="sourcePoint" />
            <mxPoint x="-760" y="-219.5" as="targetPoint" />
          </mxGeometry>
        </mxCell>
        <mxCell id="3CJS3uB6BW7C9CZVDvfE-36" value="&amp;lt;&amp;lt;requires&amp;gt;&amp;gt;" style="edgeLabel;html=1;align=center;verticalAlign=middle;resizable=0;points=[];" parent="3CJS3uB6BW7C9CZVDvfE-35" vertex="1" connectable="0">
          <mxGeometry x="-0.3231" y="-6" relative="1" as="geometry">
            <mxPoint x="-11" y="-5" as="offset" />
          </mxGeometry>
        </mxCell>
        <mxCell id="KCRMuqE5agu1tMKIUu5A-3" style="edgeStyle=orthogonalEdgeStyle;rounded=0;orthogonalLoop=1;jettySize=auto;html=1;" edge="1" parent="1" source="KCRMuqE5agu1tMKIUu5A-1" target="KCRMuqE5agu1tMKIUu5A-2">
          <mxGeometry relative="1" as="geometry" />
        </mxCell>
        <mxCell id="KCRMuqE5agu1tMKIUu5A-1" value="&lt;p style=&quot;margin:0px;margin-top:4px;text-align:center;&quot;&gt;&amp;lt;&amp;lt;stereotype&amp;gt;&amp;gt;&lt;br&gt;&lt;/p&gt;&lt;p style=&quot;margin:0px;margin-top:4px;text-align:center;&quot;&gt;&lt;b&gt;Hardware&lt;/b&gt;&lt;/p&gt;" style="shape=rect;overflow=fill;html=1;whiteSpace=wrap;align=center;" vertex="1" parent="1">
          <mxGeometry x="-475" y="70" width="200" height="100" as="geometry" />
        </mxCell>
        <mxCell id="KCRMuqE5agu1tMKIUu5A-2" value="&lt;p style=&quot;margin:0px;margin-top:4px;text-align:center;&quot;&gt;&amp;lt;&amp;lt;metaclass&amp;gt;&amp;gt;&lt;br&gt;&lt;/p&gt;&lt;p style=&quot;margin:0px;margin-top:4px;text-align:center;&quot;&gt;&lt;b&gt;Block&lt;/b&gt;&lt;/p&gt;" style="shape=rect;overflow=fill;html=1;whiteSpace=wrap;align=center;" vertex="1" parent="1">
          <mxGeometry x="-475" y="-110" width="200" height="100" as="geometry" />
        </mxCell>
      </root>
    </mxGraphModel>
  </diagram>
</mxfile>
